# File created by Blade
# Date/Time:  Tue Apr 07 20:57:09 2015
# Frame Rate: 120.000 fps
#------------------------------------------------------
:FULLY-SPECIFIED
:DEGREES
1035
root 0.712779 33.131400 7.829211 372.580769 -2.262356 -718.187834
Spine -8.297507 -5.364053 -5.614637
Head 5.210698 -4.009891 -0.502978
LeftShoulder -17.461898 38.838975 21.739559
LeftArm 62.613277 -48.129945 -60.330119
LeftForeArm 5.120113 -0.000000 0.127439
LeftHand 8.181525 0.000000 13.143318
LeftHandThumb1 -26.253704 0.000000 33.147579
RightShoulder -7.698810 0.931535 -27.715817
RightArm 11.015305 12.738963 50.845158
RightForeArm -11.148207 0.000000 3.231909
RightHand 6.835819 -0.000000 -0.804328
RightHandThumb1 -24.326973 -0.000000 -32.862282
LeftUpLeg -24.958468 -20.932339 10.216695
LeftLeg 13.752581 -0.000000 -0.000000
LeftFoot 3.900493 -7.046479 -19.899750
LeftToeBase -14.358848 -0.000000 0.000000
RightUpLeg -8.724358 -4.355801 -5.550792
RightLeg 9.203642 -0.000000 -0.000000
RightFoot -8.856116 -12.375162 10.796020
RightToeBase -9.009348 -0.000000 0.000000
1036
root 0.601890 33.111100 7.705374 372.553241 -2.330765 -718.035211
Spine -8.142713 -5.051370 -5.756673
Head 5.064612 -3.919694 -0.783082
LeftShoulder -17.627534 38.839710 21.561749
LeftArm 62.457805 -48.388305 -60.022827
LeftForeArm 5.511321 -0.000000 -0.100442
LeftHand 7.746682 -0.000000 13.093406
LeftHandThumb1 -26.253704 0.000000 33.147579
RightShoulder -7.614296 1.042866 -27.883203
RightArm 11.104275 12.795975 50.611833
RightForeArm -10.894942 0.000000 3.126885
RightHand 6.602981 -0.000000 -0.569833
RightHandThumb1 -24.326973 -0.000000 -32.862282
LeftUpLeg -25.341286 -21.249735 10.462864
LeftLeg 14.067808 -0.000000 -0.000000
LeftFoot 3.765210 -6.724837 -20.161231
LeftToeBase -14.327075 -0.000000 0.000000
RightUpLeg -8.822443 -4.187497 -5.544863
RightLeg 9.103584 -0.000000 -0.000000
RightFoot -9.257635 -12.307734 10.712350
RightToeBase -8.556599 -0.000000 0.000000
1037
root 0.493938 33.094652 7.580803 372.574746 -2.393103 -717.914158
Spine -8.049738 -4.761734 -5.847532
Head 4.947747 -3.823990 -1.071069
LeftShoulder -17.744040 38.798793 21.444365
LeftArm 62.242124 -48.637952 -59.823725
LeftForeArm 5.835497 -0.000000 -0.238208
LeftHand 7.172636 -0.000000 13.203459
LeftHandThumb1 -26.253704 0.000000 33.147579
RightShoulder -7.512632 1.188807 -28.019180
RightArm 11.159669 12.987660 50.351353
RightForeArm -10.846131 -0.000000 3.059844
RightHand 6.323851 -0.000000 -0.272943
RightHandThumb1 -24.326973 -0.000000 -32.862282
LeftUpLeg -25.771725 -21.467369 10.702482
LeftLeg 14.409685 -0.000000 -0.000000
LeftFoot 3.631993 -6.396030 -20.303542
LeftToeBase -14.342523 -0.000000 0.000000
RightUpLeg -8.968489 -4.063563 -5.487767
RightLeg 8.978156 -0.000000 -0.000000
RightFoot -9.661222 -12.270797 10.679065
RightToeBase -8.056599 -0.000000 0.000000
1038
root 0.387945 33.083439 7.455387 372.632675 -2.470389 -717.772543
Spine -8.013617 -4.516080 -5.966884
Head 4.888965 -3.659673 -1.303266
LeftShoulder -17.930263 38.812383 21.305642
LeftArm 62.141321 -48.900449 -59.800687
LeftForeArm 6.120876 -0.000000 -0.287175
LeftHand 7.372861 -0.000000 12.297716
LeftHandThumb1 -26.253704 0.000000 33.147579
RightShoulder -7.407195 1.337268 -28.152670
RightArm 11.342328 13.708648 50.277301
RightForeArm -11.287529 -0.000000 2.860013
RightHand 6.137320 -0.000000 0.070332
RightHandThumb1 -24.326973 -0.000000 -32.862282
LeftUpLeg -26.197590 -21.611318 10.857465
LeftLeg 14.751463 -0.000000 -0.000000
LeftFoot 3.409229 -5.912828 -20.161624
LeftToeBase -14.205755 -0.000000 0.000000
RightUpLeg -9.142381 -3.921230 -5.446543
RightLeg 8.818859 -0.000000 -0.000000
RightFoot -9.948681 -12.326459 10.483938
RightToeBase -7.791919 -0.000000 0.000000
1039
root 0.287092 33.076079 7.330712 372.722086 -2.503266 -717.658008
Spine -8.011370 -4.307033 -6.031499
Head 4.840659 -3.539539 -1.533769
LeftShoulder -18.053577 38.736002 21.213474
LeftArm 61.929109 -49.085825 -59.678642
LeftForeArm 6.288864 -0.000000 -0.428857
LeftHand 6.928493 -0.000000 11.794644
LeftHandThumb1 -26.253704 0.000000 33.147579
RightShoulder -7.291856 1.555001 -28.289310
RightArm 11.344271 14.025823 50.076786
RightForeArm -11.346069 0.000000 2.809868
RightHand 5.922253 -0.000000 0.405944
RightHandThumb1 -24.326973 -0.000000 -32.862282
LeftUpLeg -26.658934 -21.825672 11.049811
LeftLeg 15.096855 -0.000000 -0.000000
LeftFoot 3.114236 -5.256647 -20.170378
LeftToeBase -13.848665 -0.000000 0.000000
RightUpLeg -9.330717 -3.808419 -5.371647
RightLeg 8.639657 -0.000000 -0.000000
RightFoot -10.201557 -12.415970 10.357810
RightToeBase -7.517091 -0.000000 0.000000
1040
root 0.187021 33.074079 7.208974 372.803906 -2.541800 -717.543208
Spine -8.017346 -4.135757 -6.107108
Head 4.829975 -3.388156 -1.727305
LeftShoulder -18.242728 38.761691 21.070076
LeftArm 61.897440 -49.276714 -59.706661
LeftForeArm 6.328879 -0.000000 -0.620145
LeftHand 6.742591 -0.000000 11.410519
LeftHandThumb1 -26.253704 0.000000 33.147579
RightShoulder -7.175141 1.815347 -28.396506
RightArm 11.327284 14.045720 49.835036
RightForeArm -11.159263 -0.000000 2.795621
RightHand 5.537281 -0.000000 0.686290
RightHandThumb1 -24.326973 -0.000000 -32.862282
LeftUpLeg -27.046260 -21.887123 11.147617
LeftLeg 15.415610 -0.000000 -0.000000
LeftFoot 2.751370 -4.563061 -20.374991
LeftToeBase -13.121586 -0.000000 0.000000
RightUpLeg -9.515852 -3.759539 -5.297075
RightLeg 8.463956 -0.000000 -0.000000
RightFoot -10.289883 -12.469184 10.060337
RightToeBase -7.501835 -0.000000 0.000000
1041
root 0.094043 33.076098 7.090138 372.862027 -2.531027 -717.406328
Spine -7.993379 -4.041216 -6.192877
Head 4.824956 -3.227767 -1.864631
LeftShoulder -18.444906 38.756220 20.941381
LeftArm 61.993941 -49.534593 -59.991499
LeftForeArm 6.564834 0.000000 -0.721604
LeftHand 6.194369 -0.000000 10.565328
LeftHandThumb1 -26.253704 0.000000 33.147579
RightShoulder -7.065640 2.051183 -28.467285
RightArm 11.372041 14.114935 49.617044
RightForeArm -11.081333 -0.000000 2.740251
RightHand 5.412510 -0.000000 0.732868
RightHandThumb1 -24.326973 -0.000000 -32.862282
LeftUpLeg -27.382701 -21.907939 11.135104
LeftLeg 15.753898 -0.000000 -0.000000
LeftFoot 2.318097 -3.732588 -20.822241
LeftToeBase -12.180953 -0.000000 0.000000
RightUpLeg -9.693689 -3.688340 -5.238779
RightLeg 8.340763 -0.000000 -0.000000
RightFoot -10.522445 -12.614957 9.915782
RightToeBase -6.988793 -0.000000 0.000000
1042
root 0.003218 33.081838 6.975284 372.898031 -2.504773 -717.277573
Spine -7.950814 -3.940389 -6.269337
Head 4.823344 -3.091920 -1.978239
LeftShoulder -18.507472 38.612385 20.936084
LeftArm 61.765064 -49.656353 -60.022380
LeftForeArm 6.735548 -0.000000 -0.890575
LeftHand 5.881215 -0.000000 10.295876
LeftHandThumb1 -26.253704 0.000000 33.147579
RightShoulder -6.992697 2.257307 -28.536995
RightArm 11.433317 14.309022 49.450536
RightForeArm -11.130830 -0.000000 2.713226
RightHand 5.235202 -0.000000 0.823161
RightHandThumb1 -24.326973 -0.000000 -32.862282
LeftUpLeg -27.653507 -21.820360 11.025001
LeftLeg 16.127234 -0.000000 -0.000000
LeftFoot 1.797667 -2.739183 -21.366292
LeftToeBase -11.505535 -0.000000 0.000000
RightUpLeg -9.833975 -3.563790 -5.191592
RightLeg 8.215032 -0.000000 -0.000000
RightFoot -10.674291 -12.769112 9.759376
RightToeBase -6.695743 -0.000000 0.000000
1043
root -0.082696 33.089618 6.869090 372.890464 -2.431411 -717.120565
Spine -7.881796 -3.884366 -6.371382
Head 4.864104 -2.994839 -2.064589
LeftShoulder -18.576029 38.531574 20.915403
LeftArm 61.605894 -49.765207 -60.049027
LeftForeArm 6.691291 -0.000000 -1.128201
LeftHand 5.734065 -0.000000 9.815458
LeftHandThumb1 -26.253704 0.000000 33.147579
RightShoulder -6.913333 2.444516 -28.555486
RightArm 11.480539 14.471572 49.234898
RightForeArm -11.280097 -0.000000 2.684162
RightHand 5.337947 -0.000000 0.792521
RightHandThumb1 -24.326973 -0.000000 -32.862282
LeftUpLeg -27.829604 -21.703783 10.789678
LeftLeg 16.511287 -0.000000 -0.000000
LeftFoot 1.163799 -1.544810 -22.041751
LeftToeBase -11.103437 -0.000000 0.000000
RightUpLeg -9.927954 -3.531608 -5.169311
RightLeg 8.121954 -0.000000 -0.000000
RightFoot -10.772797 -12.924281 9.500087
RightToeBase -6.552326 -0.000000 0.000000
1044
root -0.165975 33.098914 6.766567 372.843748 -2.335861 -716.993506
Spine -7.769728 -3.852204 -6.446658
Head 4.905557 -2.890340 -2.102828
LeftShoulder -18.605411 38.439450 20.945091
LeftArm 61.417273 -49.841337 -60.086934
LeftForeArm 6.627732 -0.000000 -1.373067
LeftHand 5.380120 0.000000 9.278278
LeftHandThumb1 -26.253704 0.000000 33.147579
RightShoulder -6.843845 2.657404 -28.611529
RightArm 11.501019 14.574515 49.086614
RightForeArm -11.343804 -0.000000 2.714486
RightHand 4.984579 -0.000000 0.989492
RightHandThumb1 -24.326973 -0.000000 -32.862282
LeftUpLeg -27.943468 -21.441860 10.435162
LeftLeg 17.041625 -0.000000 -0.000000
LeftFoot 0.331054 -0.285043 -23.008165
LeftToeBase -10.245448 -0.000000 0.000000
RightUpLeg -9.974623 -3.443312 -5.121418
RightLeg 8.019188 -0.000000 -0.000000
RightFoot -10.835685 -13.145604 9.283159
RightToeBase -6.422619 -0.000000 0.000000
1045
root -0.244988 33.109466 6.671143 372.734635 -2.192873 -716.871955
Spine -7.593785 -3.862921 -6.499004
Head 4.936989 -2.834970 -2.137220
LeftShoulder -18.610081 38.361638 20.968518
LeftArm 61.280976 -49.991167 -60.223522
LeftForeArm 6.890190 -0.000000 -1.599025
LeftHand 5.328866 -0.000000 9.123336
LeftHandThumb1 -26.253704 0.000000 33.147579
RightShoulder -6.766717 2.842326 -28.618952
RightArm 11.542465 14.695514 48.883891
RightForeArm -11.505788 -0.000000 2.725468
RightHand 5.046541 0.000000 1.128619
RightHandThumb1 -24.326973 -0.000000 -32.862282
LeftUpLeg -27.963597 -21.097537 9.974430
LeftLeg 17.657997 -0.000000 -0.000000
LeftFoot -0.656771 1.108743 -23.898206
LeftToeBase -10.286445 -0.000000 0.000000
RightUpLeg -9.963547 -3.383389 -5.064302
RightLeg 7.951317 -0.000000 -0.000000
RightFoot -10.786874 -13.469172 8.866471
RightToeBase -6.455499 -0.000000 0.000000
1046
root -0.321145 33.121934 6.576263 372.632994 -2.049777 -716.780186
Spine -7.421502 -3.860188 -6.517387
Head 4.942829 -2.775573 -2.153544
LeftShoulder -18.619216 38.292174 20.990752
LeftArm 61.000307 -49.988741 -60.095955
LeftForeArm 6.869150 -0.000000 -1.934763
LeftHand 5.187139 -0.000000 8.920137
LeftHandThumb1 -26.253704 0.000000 33.147579
RightShoulder -6.725858 2.993487 -28.678185
RightArm 11.606354 14.734218 48.753466
RightForeArm -11.590158 -0.000000 2.785901
RightHand 4.659694 -0.000000 1.452214
RightHandThumb1 -24.326973 -0.000000 -32.862282
LeftUpLeg -27.988290 -20.649016 9.463424
LeftLeg 18.422849 -0.000000 -0.000000
LeftFoot -1.827166 2.265082 -24.619604
LeftToeBase -10.113026 -0.000000 0.000000
RightUpLeg -9.945962 -3.184045 -4.991163
RightLeg 7.846444 -0.000000 -0.000000
RightFoot -10.832957 -13.881349 8.649421
RightToeBase -6.030364 -0.000000 0.000000
1047
root -0.392388 33.135226 6.487996 372.522478 -1.871302 -716.681148
Spine -7.255923 -3.911655 -6.531335
Head 4.969383 -2.714884 -2.186129
LeftShoulder -18.589995 38.210561 21.028863
LeftArm 60.766028 -50.048348 -60.068120
LeftForeArm 6.888514 -0.000000 -2.260590
LeftHand 4.910738 -0.000000 8.560980
LeftHandThumb1 -26.253704 0.000000 33.147579
RightShoulder -6.653805 3.063169 -28.708399
RightArm 11.695673 14.800866 48.615228
RightForeArm -11.650757 -0.000000 2.844227
RightHand 4.589905 -0.000000 1.680587
RightHandThumb1 -24.326973 -0.000000 -32.862282
LeftUpLeg -27.977378 -20.065924 8.843890
LeftLeg 19.339570 -0.000000 -0.000000
LeftFoot -3.124057 3.049432 -24.752226
LeftToeBase -9.735946 -0.000000 0.000000
RightUpLeg -9.933669 -3.118773 -4.912527
RightLeg 7.781178 -0.000000 -0.000000
RightFoot -10.798060 -14.256588 8.341659
RightToeBase -5.820542 -0.000000 0.000000
